<svg width="88" height="28" viewBox="0 0 88 28" fill="none" xmlns="http://www.w3.org/2000/svg">
<g clip-path="url(#clip0_2013_6)">
<path d="M25.4421 0.764038C25.5437 0.764038 25.6168 0.806052 25.6605 0.888966C25.7042 0.972436 25.7114 1.05952 25.6822 1.15051L18.6532 18.363C18.5803 18.5299 18.5691 18.6927 18.6203 18.8518C18.6713 19.011 18.7695 19.1359 18.915 19.2269C19.5263 19.6211 20.0098 20.1403 20.3665 20.7844C20.723 21.4286 20.9013 22.1372 20.9013 22.9104C20.9013 23.547 20.7847 24.1344 20.5521 24.6725C20.3192 25.2103 20.0065 25.6764 19.6134 26.0709C19.2205 26.4649 18.7583 26.7643 18.2272 26.9691C17.6958 27.1738 17.1321 27.2606 16.5355 27.2306C16.0116 27.2 15.5239 27.0751 15.0728 26.8555C14.6215 26.6357 14.2214 26.3475 13.8723 25.9916C13.5231 25.6352 13.2393 25.2184 13.0209 24.7409C12.8024 24.2635 12.6717 23.7593 12.628 23.229C12.5843 22.4104 12.7295 21.6523 13.0645 20.9553L15.8586 14.1341C15.9312 13.9674 15.9164 13.8158 15.8149 13.6794C15.7128 13.5431 15.582 13.4749 15.422 13.4749H10.554C10.2048 13.4749 9.95721 13.6494 9.81169 13.998L8.06549 18.3182C7.77418 19.1821 7.27975 19.8835 6.5811 20.4213C5.88246 20.9595 5.07502 21.2285 4.15796 21.2285C3.56114 21.2285 3.00439 21.1075 2.48799 20.8646C1.97158 20.6222 1.52029 20.2925 1.13465 19.8754C0.749298 19.4587 0.454647 18.9737 0.250701 18.4203C0.0470325 17.8671 -0.0330991 17.272 0.0105838 16.6354C0.0397984 16.0898 0.163335 15.582 0.381749 15.1121C0.600164 14.6424 0.883964 14.2253 1.23315 13.8614C1.58233 13.4975 1.98633 13.202 2.44458 12.9747C2.90312 12.7473 3.3942 12.6188 3.91812 12.5882C4.15072 12.5732 4.37999 12.5807 4.60564 12.611C4.83101 12.6416 5.04553 12.687 5.24947 12.7473C5.39471 12.7927 5.52938 12.7816 5.65319 12.7131C5.77673 12.645 5.86771 12.5426 5.92614 12.4062L7.51959 8.47254C7.59221 8.30588 7.57746 8.15062 7.47591 8.0065C7.3738 7.86265 7.24303 7.79059 7.08304 7.79059H5.51129C5.36577 7.79059 5.25643 7.73383 5.18381 7.62003C5.11091 7.50623 5.09644 7.3813 5.14012 7.24497L7.56383 1.17332C7.6217 1.05229 7.70573 0.953794 7.8148 0.877836C7.92387 0.802156 8.04406 0.764038 8.17511 0.764038H14.6366C14.7529 0.764038 14.8439 0.817459 14.9095 0.923189C14.9749 1.02947 14.986 1.14299 14.9423 1.2643L11.3186 10.2229C11.2457 10.3899 11.2566 10.5412 11.3514 10.6776C11.446 10.8139 11.5732 10.8821 11.7335 10.8821H16.6668C17.0016 10.8821 17.2417 10.7154 17.3872 10.3818L18.2823 8.17622C18.326 8.08524 18.3221 8.00205 18.2714 7.92609C18.2202 7.85041 18.1512 7.81229 18.0641 7.81229H16.6671C16.5942 7.81229 16.5361 7.77807 16.4924 7.7099C16.4487 7.64173 16.4412 7.56995 16.4707 7.49399L18.9587 1.12797C19.046 0.885627 19.213 0.764038 19.4606 0.764038H25.4418H25.4421Z" fill="white"/>
<path d="M29.1753 15.9983H30.0703C29.5609 16.9685 28.9933 17.8399 28.3675 18.6131C28.1057 18.9314 27.818 19.2497 27.5053 19.568C27.1923 19.8863 26.8576 20.1671 26.5011 20.4094C26.1444 20.652 25.7699 20.8493 25.3771 21.0007C24.9842 21.1523 24.5766 21.228 24.1545 21.228C23.3393 21.228 22.7536 21.0652 22.3972 20.7391C22.0408 20.4133 21.8262 20.004 21.7533 19.5113C21.6807 19.0188 21.7136 18.4882 21.8516 17.9198C21.9901 17.3513 22.1537 16.8321 22.3426 16.3622C22.4155 16.2412 22.4155 16.1121 22.3426 15.9757L22.2336 15.7256C22.1899 15.5742 22.1899 15.4379 22.2336 15.3163L23.8927 11.1781C23.9653 10.9661 24.1181 10.8598 24.3512 10.8598H27.4291C27.6038 10.8598 27.7418 10.9394 27.8439 11.0985C27.9455 11.2577 27.9602 11.4207 27.8876 11.5874C27.4363 12.7092 27.0106 13.7702 26.6105 14.7707C26.2101 15.7712 25.8862 16.5823 25.6392 17.2036C25.61 17.2795 25.5771 17.3819 25.541 17.5105C25.5045 17.6393 25.4898 17.7684 25.4973 17.8969C25.5045 18.0258 25.5482 18.1357 25.6283 18.2266C25.7082 18.3176 25.8428 18.363 26.032 18.363C26.3812 18.363 26.7415 18.242 27.1127 17.9991C27.4839 17.7567 27.8222 17.484 28.1277 17.1805C28.4769 16.8319 28.8264 16.4379 29.1755 15.9983H29.1753ZM24.7658 9.72267C24.6929 9.72267 24.6347 9.68845 24.5911 9.62028C24.5474 9.55211 24.5399 9.48033 24.5694 9.40437L25.879 6.17573C25.9369 6.00907 26.0607 5.9256 26.2502 5.9256H29.5244C29.6697 5.9256 29.7826 5.98625 29.8628 6.10756C29.9426 6.22915 29.9535 6.3577 29.8956 6.49403C29.7209 6.93392 29.5317 7.41137 29.328 7.92639C29.1241 8.44196 28.9057 8.98758 28.673 9.56352C28.6294 9.66981 28.564 9.72267 28.4766 9.72267H24.7658Z" fill="white"/>
<path d="M36.9027 5.33435C36.7424 5.72861 36.5388 6.23639 36.2914 6.85769C36.0438 7.47954 35.7747 8.1537 35.4837 8.88129C35.1924 9.60887 34.8869 10.3707 34.5669 11.1664C34.2467 11.9622 33.9373 12.7354 33.6393 13.4855C33.3407 14.2359 33.0608 14.9332 32.7987 15.5773C32.5369 16.2217 32.3185 16.7637 32.1438 17.203C32.1146 17.279 32.0817 17.3814 32.0456 17.5099C32.0091 17.6387 31.9944 17.7678 32.0019 17.8964C32.0091 18.0252 32.0528 18.1351 32.1329 18.2261C32.2128 18.3171 32.3474 18.3624 32.5366 18.3624C32.8858 18.3624 33.2461 18.2414 33.6173 17.9985C33.9885 17.7562 34.3268 17.4835 34.6323 17.1799C34.9815 16.8313 35.331 16.4373 35.6801 15.9977H36.5752C36.0658 17.0288 35.4982 17.9456 34.8724 18.7489C34.6106 19.0825 34.3229 19.4161 34.0102 19.7494C33.6972 20.083 33.3624 20.3785 33.006 20.6362C32.6493 20.8941 32.2748 21.1022 31.8817 21.2614C31.4888 21.4205 31.0812 21.5001 30.6594 21.5001C29.8442 21.5001 29.2585 21.3217 28.9021 20.9659C28.5456 20.61 28.3311 20.1701 28.2582 19.647C28.1856 19.124 28.2184 18.5636 28.3564 17.9646C28.495 17.3658 28.6586 16.8316 28.8475 16.3616C28.9204 16.2406 28.9204 16.1115 28.8475 15.9752L28.7385 15.725C28.6948 15.5737 28.6948 15.4373 28.7385 15.3158L32.9078 4.90197C33.0389 4.64433 33.2353 4.5155 33.4971 4.5155H36.3785C36.5822 4.5155 36.7388 4.60287 36.8479 4.77704C36.957 4.9515 36.975 5.13736 36.9024 5.33407L36.9027 5.33435Z" fill="white"/>
<path d="M42.1196 15.9983H43.0147C42.505 16.9685 41.9376 17.8399 41.3119 18.6131C41.0501 18.9314 40.7624 19.2497 40.4496 19.568C40.1366 19.8863 39.8019 20.1671 39.4455 20.4094C39.0888 20.652 38.7143 20.8493 38.3214 21.0007C37.9285 21.1523 37.5209 21.228 37.0988 21.228C36.2836 21.228 35.6979 21.0652 35.3415 20.7391C34.9851 20.4133 34.7706 20.004 34.6977 19.5113C34.6251 19.0188 34.6579 18.4882 34.7959 17.9198C34.9345 17.3513 35.0981 16.8321 35.287 16.3622C35.3599 16.2412 35.3599 16.1121 35.287 15.9757L35.1779 15.7256C35.1342 15.5742 35.1342 15.4379 35.1779 15.3163L36.837 11.1781C36.9096 10.9661 37.0624 10.8598 37.2956 10.8598H40.3734C40.5481 10.8598 40.6861 10.9394 40.7882 11.0985C40.8898 11.2577 40.9045 11.4207 40.8319 11.5874C40.3806 12.7092 39.9549 13.7702 39.5548 14.7707C39.1544 15.7712 38.8306 16.5823 38.5835 17.2036C38.5543 17.2795 38.5215 17.3819 38.4853 17.5105C38.4488 17.6393 38.4341 17.7684 38.4416 17.8969C38.4488 18.0258 38.4925 18.1357 38.5727 18.2266C38.6525 18.3176 38.7872 18.363 38.9764 18.363C39.3256 18.363 39.6859 18.242 40.0568 17.9991C40.4279 17.7567 40.7663 17.484 41.0718 17.1805C41.4209 16.8319 41.7704 16.4379 42.1196 15.9983ZM37.7101 9.72267C37.6372 9.72267 37.5791 9.68845 37.5354 9.62028C37.4917 9.55211 37.4842 9.48033 37.5134 9.40437L38.8231 6.17573C38.8809 6.00907 39.0048 5.9256 39.1942 5.9256H42.4685C42.6137 5.9256 42.7267 5.98625 42.8068 6.10756C42.8867 6.22915 42.8975 6.3577 42.8397 6.49403C42.6649 6.93392 42.4757 7.41137 42.2721 7.92639C42.0681 8.44196 41.8497 8.98758 41.6171 9.56352C41.5734 9.66981 41.508 9.72267 41.4207 9.72267H37.7098H37.7101Z" fill="white"/>
<path d="M58.9931 16.0892H59.7351C59.3128 17.0441 58.8473 17.9008 58.3381 18.6585C58.1197 18.9768 57.876 19.2914 57.6069 19.602C57.3376 19.9127 57.0502 20.1857 56.7447 20.4205C56.4392 20.6556 56.1186 20.849 55.7842 21.0004C55.4492 21.152 55.0928 21.2277 54.7147 21.2277C54.1615 21.2277 53.7069 21.1367 53.3502 20.9547C52.9935 20.7728 52.7461 20.4851 52.6081 20.0908C52.4696 19.6968 52.4515 19.1852 52.5536 18.5561C52.6552 17.9273 52.8811 17.173 53.2303 16.2937C53.2592 16.2484 53.2812 16.1766 53.2957 16.0778C53.3098 15.9793 53.3137 15.8811 53.3065 15.7823C53.299 15.6838 53.2737 15.6004 53.23 15.5322C53.1863 15.464 53.1134 15.4298 53.0116 15.4298C52.8224 15.4298 52.6513 15.4905 52.4985 15.6118C52.3458 15.7334 52.2072 15.8772 52.0837 16.0439C51.9598 16.2108 51.8544 16.3889 51.767 16.5781C51.6797 16.7679 51.6068 16.9306 51.5486 17.067C51.5486 17.0823 51.4902 17.23 51.3739 17.5105C51.2573 17.7912 51.119 18.1323 50.959 18.5335C50.7988 18.9353 50.6316 19.356 50.4571 19.7956C50.2824 20.2355 50.1296 20.6142 49.9986 20.9325C49.9257 21.1297 49.7874 21.228 49.5837 21.228H46.3965C46.2363 21.228 46.1091 21.1598 46.0145 21.0235C45.9196 20.8871 45.9088 20.7358 45.9817 20.5688L47.357 17.1354C47.4296 16.9387 47.4914 16.7375 47.5426 16.5327C47.5935 16.3282 47.6224 16.1463 47.63 15.9871C47.6372 15.828 47.6152 15.6955 47.5646 15.5892C47.5134 15.4832 47.4152 15.4301 47.2699 15.4301C46.9933 15.4301 46.7493 15.525 46.5387 15.7142C46.3275 15.9039 46.142 16.1198 45.982 16.3622C45.7928 16.6351 45.6328 16.9459 45.5017 17.2946C45.2541 17.9312 45.0068 18.5563 44.7597 19.1704C44.5121 19.7842 44.2794 20.3718 44.061 20.9325C43.9881 21.1297 43.8426 21.228 43.6245 21.228H40.4593C40.2993 21.228 40.1721 21.1598 40.0773 21.0235C39.9827 20.8871 39.9718 20.7358 40.0444 20.5688L41.9654 15.7484C41.9946 15.6727 41.9873 15.597 41.9437 15.5211C41.8563 15.4301 41.8346 15.3163 41.8783 15.18L43.5591 10.9961C43.6028 10.9052 43.6682 10.8598 43.7555 10.8598H46.3751C46.7532 10.8598 47.0443 11.0039 47.2482 11.2919C47.3793 11.4435 47.5245 11.4664 47.6848 11.3601C48.0484 11.1328 48.4341 10.9775 48.8417 10.894C49.249 10.8108 49.6636 10.7691 50.0859 10.7691C50.6099 10.7691 51.0247 10.8184 51.3302 10.9168C51.6357 11.0156 51.8831 11.1481 52.0723 11.3147C52.2907 11.4967 52.5377 11.5877 52.8146 11.5877C53.0183 11.5877 53.2219 11.5273 53.4259 11.4057C53.644 11.2543 53.9242 11.1216 54.2664 11.0078C54.6081 10.894 55.0121 10.8373 55.4778 10.8373C55.9436 10.8373 56.369 10.9436 56.7113 11.1556C57.0529 11.3681 57.315 11.6444 57.497 11.9855C57.6787 12.3267 57.7769 12.7056 57.7917 13.1224C57.8061 13.5395 57.7263 13.9602 57.5515 14.3845C57.4494 14.6574 57.3476 14.9226 57.246 15.1802C57.1587 15.3928 57.0749 15.6048 56.9951 15.8168C56.9149 16.0294 56.8457 16.1958 56.7878 16.3171C56.7441 16.4234 56.6821 16.5711 56.6022 16.7606C56.5221 16.9504 56.4636 17.1396 56.4275 17.3291C56.391 17.5188 56.3946 17.6855 56.4383 17.8293C56.482 17.9734 56.5983 18.0452 56.7875 18.0452C57.0349 18.0452 57.2858 17.9428 57.5407 17.7383C57.795 17.5338 58.0318 17.3101 58.2502 17.0675C58.4975 16.7798 58.7446 16.4537 58.9922 16.0898L58.9931 16.0892Z" fill="white"/>
<path d="M69.231 15.3161H70.0168C69.5218 16.4229 68.9036 17.4078 68.1612 18.272C67.8557 18.636 67.5026 18.996 67.1025 19.3521C66.7022 19.7086 66.2584 20.0269 65.7709 20.307C65.2832 20.5878 64.7484 20.8112 64.1663 20.9779C63.584 21.1448 62.9582 21.228 62.2891 21.228H61.3723C60.7755 21.228 60.2407 21.088 59.7677 20.8073C59.2947 20.5268 58.9127 20.1479 58.6217 19.6704C58.3306 19.193 58.1414 18.6323 58.0541 17.9879C57.9667 17.3438 58.0031 16.6655 58.1631 15.9529C58.3234 15.2407 58.5855 14.5698 58.9489 13.9407C59.3125 13.3119 59.7457 12.7624 60.2477 12.2922C60.7496 11.8225 61.2955 11.4508 61.8848 11.1781C62.4741 10.9052 63.067 10.7689 63.6638 10.7689C64.1149 10.7689 64.5442 10.8409 64.9518 10.9848C65.3591 11.1289 65.7192 11.3373 66.0325 11.61C66.3452 11.8829 66.5962 12.2204 66.7856 12.6219C66.9746 13.0237 67.0694 13.4825 67.0694 13.9975C67.0694 14.6647 66.9565 15.2178 66.7311 15.6575C66.5052 16.0973 66.2253 16.4496 65.8905 16.7147C65.5556 16.9802 65.1955 17.166 64.8099 17.2718C64.424 17.3781 64.0639 17.4309 63.7292 17.4309H63.0962C62.907 17.4159 62.7176 17.3967 62.5286 17.3742C62.3394 17.3513 62.1795 17.3174 62.0484 17.2718C62.0626 17.4991 62.15 17.7039 62.3102 17.8856C62.4265 18.0525 62.6269 18.2002 62.9107 18.3291C63.1945 18.4582 63.5982 18.5224 64.1221 18.5224C64.5294 18.5224 64.9587 18.4543 65.41 18.3179C65.8611 18.1816 66.294 17.9921 66.7088 17.7495C67.1237 17.5072 67.509 17.2303 67.8657 16.9195C68.2222 16.609 68.5168 16.2868 68.75 15.9532L69.2302 15.3166L69.231 15.3161ZM62.0929 15.7253C62.0492 15.8923 62.0673 16.04 62.1475 16.1688C62.2273 16.2979 62.3472 16.3622 62.5078 16.3622C62.6683 16.3622 62.8169 16.2979 62.9552 16.1688C63.0932 16.0403 63.1844 15.8926 63.2281 15.7253C63.2718 15.5587 63.2534 15.4148 63.1736 15.2932C63.0935 15.1722 62.9733 15.1113 62.8133 15.1113C62.6533 15.1113 62.5003 15.1719 62.3547 15.2932C62.2092 15.4148 62.1219 15.5587 62.0929 15.7253Z" fill="white"/>
<path d="M79.9057 16.0893H80.6698C80.2474 17.0442 79.7747 17.9008 79.2508 18.6585C79.0323 18.9768 78.7922 19.2915 78.5304 19.602C78.2686 19.9128 77.9848 20.1857 77.679 20.4205C77.3735 20.6556 77.0494 20.849 76.7077 21.0004C76.3657 21.152 76.0127 21.2277 75.649 21.2277C74.9359 21.2277 74.3972 21.1139 74.0336 20.8866C73.6696 20.6593 73.4476 20.3373 73.3678 19.9203C73.2876 19.5035 73.3241 18.9879 73.4768 18.3741C73.6296 17.7603 73.8588 17.0667 74.1643 16.2938C74.1933 16.2484 74.2189 16.1766 74.2409 16.0778C74.2628 15.9794 74.2737 15.8811 74.2737 15.7824C74.2737 15.6836 74.2553 15.6004 74.2192 15.5322C74.1827 15.4641 74.1134 15.4298 74.0119 15.4298C73.8371 15.4298 73.6769 15.4791 73.5316 15.5776C73.3861 15.6764 73.2512 15.8013 73.1279 15.9526C73.0041 16.1043 72.895 16.2673 72.8004 16.4415C72.7056 16.616 72.6221 16.7712 72.5495 16.9075C72.2729 17.5898 72 18.2681 71.7309 18.9426C71.4616 19.6173 71.2034 20.2653 70.956 20.8866C70.8539 21.1139 70.6867 21.2277 70.4541 21.2277H67.1361C67.0198 21.2277 66.9288 21.1787 66.8632 21.08C66.7978 20.9815 66.7867 20.8718 66.8303 20.7502L68.8386 15.7479C68.8676 15.6722 68.864 15.604 68.8278 15.5434C68.7916 15.483 68.7371 15.4524 68.6642 15.4524L70.4541 10.9959C70.483 10.9049 70.5414 10.8595 70.6288 10.8595H73.2484C73.5976 10.8595 73.8886 10.9959 74.1215 11.2688C74.2231 11.3904 74.3469 11.413 74.4927 11.337C74.6526 11.231 74.7982 11.1436 74.9292 11.0755C75.0603 11.0073 75.1766 10.9583 75.2784 10.9277C75.4384 10.8673 75.6201 10.8367 75.824 10.8367H76.2169C76.6534 10.8367 77.0499 10.943 77.4066 11.155C77.763 11.3676 78.0505 11.6439 78.2689 11.985C78.4873 12.3261 78.6217 12.7051 78.6726 13.1219C78.7235 13.5389 78.6617 13.9596 78.487 14.384C78.3849 14.6569 78.2831 14.9221 78.1815 15.1797C78.0941 15.3923 78.0068 15.6043 77.9197 15.8163C77.8323 16.0289 77.7594 16.1953 77.7013 16.3166C77.6576 16.4229 77.5992 16.5706 77.5265 16.7601C77.4536 16.9498 77.3991 17.139 77.3629 17.3285C77.3265 17.5183 77.3301 17.6849 77.3738 17.8288C77.4175 17.9729 77.5338 18.0447 77.723 18.0447C77.9556 18.0447 78.1996 17.9423 78.4542 17.7378C78.7085 17.5333 78.9453 17.3096 79.1637 17.067C79.411 16.7793 79.6584 16.4532 79.9057 16.0893Z" fill="white"/>
<path d="M83.1582 18.363C83.5074 18.363 83.8677 18.2419 84.2389 17.999C84.6101 17.7567 84.9484 17.484 85.2539 17.1805C85.6031 16.8318 85.9525 16.4378 86.3017 15.9982H87.1968C86.6871 16.9684 86.1198 17.8399 85.494 18.6131C85.2319 18.9314 84.9445 19.2497 84.6318 19.568C84.3187 19.8863 83.984 20.167 83.6276 20.4094C83.2709 20.652 82.8964 20.8493 82.5035 21.0006C82.1107 21.1523 81.7031 21.2279 81.281 21.2279C80.4657 21.2279 79.8801 21.0652 79.5236 20.7391C79.1672 20.4133 78.9527 20.004 78.8798 19.5112C78.8072 19.0187 78.84 18.4882 78.978 17.9197C79.1166 17.3513 79.2802 16.8321 79.4691 16.3622C79.542 16.2411 79.542 16.112 79.4691 15.9757L79.36 15.7027C79.3164 15.5664 79.3164 15.4376 79.36 15.3163L81.1499 10.8598H79.862L80.6697 9.04068H81.8703L83.5948 4.76588C83.6674 4.59922 83.7912 4.51575 83.9659 4.51575H87.3713C87.4876 4.51575 87.5785 4.5611 87.6442 4.65208C87.7096 4.74307 87.7207 4.84935 87.677 4.97038C87.5168 5.33431 87.295 5.87993 87.0112 6.60752C86.7274 7.3351 86.4033 8.14616 86.0399 9.04041H87.7861L87.0004 10.8595H85.3196C85.0719 11.4661 84.8246 12.076 84.5775 12.69C84.3299 13.3038 84.0973 13.8875 83.8789 14.4407C83.6604 14.9941 83.4532 15.5058 83.2567 15.9754C83.0603 16.4454 82.8964 16.8546 82.7656 17.2033C82.7364 17.2792 82.7036 17.3816 82.6674 17.5102C82.631 17.639 82.6162 17.7681 82.6237 17.8966C82.631 18.0255 82.6747 18.1354 82.7548 18.2263C82.8346 18.3173 82.9693 18.3627 83.1585 18.3627L83.1582 18.363Z" fill="white"/>
</g>
<defs>
<clipPath id="clip0_2013_6">
<rect width="87.7859" height="26.4724" fill="white" transform="translate(0 0.764038)"/>
</clipPath>
</defs>
</svg>
