<svg width="10" height="10" viewBox="0 0 10 10" fill="none" xmlns="http://www.w3.org/2000/svg">
<g clip-path="url(#clip0_131_1969)">
<path d="M5.00049 5C5.00049 7.76131 7.23856 10 9.99987 10C9.99987 7.23869 7.76179 5 5.00049 5Z" fill="white"/>
<path d="M9.99987 4.76837e-07C7.23856 4.76837e-07 5.00049 2.23807 5.00049 5C7.76179 5 9.99987 2.76193 9.99987 4.76837e-07Z" fill="white"/>
<path d="M0.000488281 10C2.76179 10 5.00049 7.76131 5.00049 5C2.23856 5 0.000488281 7.23807 0.000488281 10Z" fill="white"/>
<path d="M0.000488281 4.76837e-07C0.000488281 2.76131 2.23856 5 5.00049 5C5.00049 2.23807 2.76179 4.76837e-07 0.000488281 4.76837e-07Z" fill="white"/>
</g>
<defs>
<clipPath id="clip0_131_1969">
<rect width="9.99938" height="10" fill="white" transform="translate(0.000488281)"/>
</clipPath>
</defs>
</svg>
